<svg xmlns="http://www.w3.org/2000/svg" width="410" height="82" viewBox="0 0 410 82">
<g clip-path="url(#clip0_2918_774)">
<path d="M256.784 12.5464C260.967 12.5464 264.052 14.8919 265.658 18.9149H265.995C268.489 14.6373 271.533 12.5464 275.378 12.5464C281.717 12.5464 285.563 17.8959 285.563 26.5149V47.5106C285.563 48.1477 285.098 48.6147 284.464 48.6147H277.702C277.069 48.6147 276.603 48.1477 276.603 47.5106V27.1942C276.603 23.076 274.998 20.7835 271.997 20.7835C268.7 20.7835 266.968 23.4579 266.968 28.3834V47.5106C266.968 48.1477 266.503 48.6147 265.869 48.6147H259.107C258.473 48.6147 258.009 48.1477 258.009 47.5106V27.1942C258.009 23.076 256.402 20.7835 253.403 20.7835C250.106 20.7835 248.373 23.4579 248.373 28.3834V47.5106C248.373 48.1477 247.908 48.6147 247.274 48.6147H240.513C239.879 48.6147 239.414 48.1477 239.414 47.5106V14.4142C239.414 13.7778 239.879 13.3108 240.513 13.3108H246.091C246.725 13.3108 247.136 13.7349 247.274 14.4142L248.12 18.5753H248.457C249.979 14.7117 252.895 12.5464 256.784 12.5464Z" fill="white"/>
<path d="M318.406 14.4139V47.5103C318.406 48.1474 317.94 48.6144 317.307 48.6144H311.728C311.052 48.6144 310.693 48.1896 310.545 47.5103L309.699 43.3499H309.362C307.84 47.2979 304.882 49.3788 300.909 49.3788C294.57 49.3788 290.682 44.1565 290.682 35.622V14.4139C290.682 13.7775 291.146 13.3105 291.781 13.3105H298.543C299.177 13.3105 299.642 13.7775 299.642 14.4139V34.9426C299.642 38.9764 301.248 41.1839 304.29 41.1839C307.671 41.1839 309.446 38.6368 309.446 33.7542V14.4139C309.446 13.7775 309.912 13.3106 310.545 13.3106H317.307C317.94 13.3106 318.406 13.7775 318.406 14.4139Z" fill="white"/>
<path d="M340.469 23.3091C340.046 20.9744 338.271 19.6157 335.862 19.6157C333.454 19.6157 331.848 20.8893 331.848 22.7578C331.848 24.4984 333.115 25.6232 335.736 26.2818L340.68 27.5131C346.808 29.0413 349.429 32.5652 349.429 37.8304C349.429 44.4964 343.764 49.379 336.2 49.379C329.311 49.379 323.564 45.77 322.55 38.085C322.466 37.4056 322.803 36.9387 323.479 36.8114L329.311 35.7073C330.073 35.5586 330.496 35.8775 330.664 36.8114C331.256 40.5263 333.284 42.3097 336.2 42.3097C338.863 42.3097 340.722 40.9081 340.722 38.637C340.722 36.4288 339.413 35.2296 336.665 34.561L332.988 33.6693C325.55 31.8652 323.142 28.2347 323.142 23.3091C323.142 16.41 328.805 12.5464 335.862 12.5464C343.174 12.5464 347.4 16.3249 348.667 21.781C348.837 22.5454 348.583 23.0124 347.822 23.1397L341.736 24.1587C341.06 24.2752 340.553 23.9885 340.469 23.3091Z" fill="white"/>
<path d="M358.054 0C360.928 0 363.294 1.95291 363.294 5.26447C363.294 8.49165 360.928 10.5296 358.054 10.5296C355.18 10.5296 352.814 8.49165 352.814 5.26447C352.814 1.95291 355.18 0 358.054 0ZM353.574 47.5103V14.414C353.574 13.7776 354.04 13.3106 354.673 13.3106H361.435C362.068 13.3106 362.534 13.7776 362.534 14.414V47.5103C362.534 48.1475 362.068 48.6144 361.435 48.6144H354.673C354.04 48.6144 353.574 48.1475 353.574 47.5103Z" fill="white"/>
<path d="M395.624 37.5329C394.102 45.1758 388.525 49.379 382.016 49.379C373.31 49.379 366.802 41.4394 366.802 30.952C366.802 20.486 373.31 12.5464 382.016 12.5464C388.525 12.5464 394.102 16.7497 395.624 24.3925C395.751 25.114 395.413 25.581 394.737 25.7083L388.609 26.8124C387.933 26.9397 387.51 26.6422 387.34 25.9207C386.411 21.6323 384.552 19.7216 382.016 19.7216C378.129 19.7216 376.1 23.7132 376.1 30.952C376.1 38.2123 378.129 42.2032 382.016 42.2032C384.552 42.2032 386.411 40.2925 387.34 36.0048C387.51 35.2826 387.933 34.9858 388.609 35.1131L394.737 36.2165C395.413 36.3445 395.751 36.8114 395.624 37.5329Z" fill="white"/>
<path d="M193.959 48.6138H200.721C201.355 48.6138 201.82 48.1469 201.82 47.5106V28.3781C201.82 23.4569 203.679 20.7845 207.102 20.7845C210.23 20.7845 211.963 23.0752 211.963 27.1903V47.5106C211.963 48.1469 212.428 48.6138 213.061 48.6138H219.823C220.457 48.6138 220.922 48.1469 220.922 47.5106V26.5114C220.922 17.8998 216.949 12.5547 210.484 12.5547C206.468 12.5547 203.426 14.7182 201.904 18.5784H201.566L200.721 14.421C200.594 13.7425 200.172 13.3181 199.538 13.3181H193.959C193.325 13.3181 192.86 13.7847 192.86 14.421V47.5106C192.86 48.1469 193.325 48.6138 193.959 48.6138ZM167.082 30.966C167.082 23.7541 169.195 19.7665 172.998 19.7665C176.844 19.7665 179 23.7541 179 30.966C179 38.1778 176.844 42.1654 172.998 42.1654C169.195 42.1654 167.082 38.1778 167.082 30.966ZM157.784 30.966C157.784 41.4865 164.335 49.3772 172.998 49.3772C181.705 49.3772 188.297 41.4865 188.297 30.966C188.297 20.4454 181.705 12.5547 172.998 12.5547C164.335 12.5547 157.784 20.4451 157.784 30.966ZM131.963 48.4863C136.355 46.9519 139.781 46.3228 143.542 46.3228C147.346 46.3228 150.22 46.8742 154.446 48.4863C155.291 48.8258 155.925 48.4863 155.925 47.5954V42.7169C155.925 41.9957 155.587 41.5714 154.953 41.2745C151.361 39.705 148.149 39.0261 144.05 39.0261C143.162 39.0261 142.359 39.111 141.64 39.2384L154.742 21.1663C155.122 20.6571 155.249 20.1482 155.249 19.5542V14.4211C155.249 13.7847 154.784 13.3181 154.15 13.3181H131.92C131.286 13.3181 130.821 13.7847 130.821 14.4211V19.3422C130.821 19.9785 131.286 20.4451 131.92 20.4451H145.444L130.99 40.7653C130.61 41.2745 130.483 41.7837 130.483 42.3774V47.5954C130.483 48.4863 131.117 48.7818 131.963 48.4863ZM107.241 37.7535C107.241 33.681 110.114 31.0931 114.721 31.0931C115.481 31.0931 116.242 31.178 116.961 31.3054V33.5535C116.961 39.4504 115.059 42.6746 111.551 42.6746C108.931 42.6746 107.241 40.7653 107.241 37.7535ZM108.128 49.3773C112.312 49.3773 115.355 47.2137 116.876 43.5229H117.214L118.059 47.5106C118.186 48.1895 118.609 48.6138 119.243 48.6138H124.821C125.455 48.6138 125.92 48.1469 125.92 47.5106V26.1723C125.92 17.3058 121.356 12.5547 112.777 12.5547C105.55 12.5547 100.648 15.8634 99.0839 21.8452C98.8725 22.6512 99.2531 23.245 99.9713 23.3724L105.846 24.3905C106.564 24.5176 106.987 24.1359 107.198 23.3724C107.959 20.6571 109.649 19.2573 112.185 19.2573C115.397 19.2573 116.961 21.336 116.961 25.6631V26.554C115.988 26.3417 114.805 26.2572 113.453 26.2572C103.986 26.2572 98.0275 31.1357 98.0275 38.7715C98.0275 45.0925 102.085 49.3773 108.128 49.3773ZM131.287 57.3951C131.711 58.3704 132.935 58.3709 134.837 57.9892C139.909 56.8859 146.332 56.801 147.431 58.3283C148.488 59.8981 146.164 65.9222 143.416 70.3338C142.402 72.0308 141.98 73.0914 142.825 73.8974C143.036 74.152 143.332 74.2369 143.67 74.2791C144.684 74.2791 145.995 73.2611 147.22 72.1156C149.882 69.7823 151.953 66.8127 153.095 63.4614C154.235 60.2372 154.785 55.6982 153.602 53.9589C152.461 52.3042 148.023 51.2013 144.6 51.2439C141.008 51.2439 137.542 52.1348 134.415 53.7892C132.471 54.8498 130.697 56.0369 131.287 57.3951ZM37.5087 55.6133C37.7997 56.5058 38.4806 57.6071 39.4949 58.8798C52.4692 74.9581 73.3465 82.0002 93.5053 82.0002C111.129 82.0002 128.16 76.6551 138.979 67.2371C140.839 65.5827 141.811 64.2675 141.811 63.2495C141.811 62.8251 141.642 62.4857 141.346 62.1465C140.416 61.1708 139.021 61.8919 137.331 62.7829C127.272 68.0857 111.805 71.7339 95.3649 71.7339C76.812 71.7339 56.949 67.11 41.9037 54.9347C40.4671 53.7892 38.9033 52.6437 37.8466 53.4924C37.4663 53.7892 37.122 54.4276 37.5087 55.6133ZM48.5813 48.6138H55.3431C55.9771 48.6138 56.4419 48.1469 56.4419 47.5106V28.3781C56.4419 23.4569 58.1746 20.7845 61.4709 20.7845C64.4717 20.7845 66.0776 23.0752 66.0776 27.1903V47.5106C66.0776 48.1469 66.5423 48.6138 67.1763 48.6138H73.9381C74.5721 48.6138 75.0372 48.1469 75.0372 47.5106V28.3781C75.0372 23.4569 76.7696 20.7845 80.0662 20.7845C83.0666 20.7845 84.6729 23.0752 84.6729 27.1903V47.5106C84.6729 48.1469 85.1376 48.6138 85.7716 48.6138H92.5334C93.1674 48.6138 93.6321 48.1469 93.6321 47.5106V26.5114C93.6321 17.8998 89.7863 12.5547 83.4472 12.5547C79.6014 12.5547 76.5586 14.6334 74.0649 18.9179H73.7267C72.1209 14.8876 69.0359 12.5547 64.8519 12.5547C60.9637 12.5547 58.0478 14.7182 56.5263 18.5784H56.1881L55.3431 14.421C55.2162 13.7425 54.7936 13.3181 54.1596 13.3181H48.5813C47.9473 13.3181 47.4822 13.7847 47.4822 14.421V47.5106C47.4822 48.1469 47.9473 48.6138 48.5813 48.6138ZM23.5631 37.7535C23.5631 33.681 26.4367 31.0931 31.0433 31.0931C31.8039 31.0931 32.5648 31.178 33.2832 31.3054V33.5535C33.2832 39.4504 31.3815 42.6746 27.8736 42.6746C25.2535 42.6746 23.5631 40.7653 23.5631 37.7535ZM24.4505 49.3773C28.6345 49.3773 31.6774 47.2137 33.1988 43.5229H33.5367L34.382 47.5106C34.5089 48.1895 34.9315 48.6138 35.5652 48.6138H41.1438C41.7778 48.6138 42.2425 48.1469 42.2425 47.5106V26.1723C42.2425 17.3058 37.6786 12.5547 29.0993 12.5547C21.8724 12.5547 16.9703 15.8634 15.4064 21.8452C15.1951 22.6512 15.5757 23.245 16.2939 23.3724L22.1685 24.3905C22.8867 24.5176 23.3094 24.1359 23.5207 23.3724C24.2816 20.6571 25.9719 19.2573 28.5077 19.2573C31.7195 19.2573 33.2833 21.336 33.2833 25.6631V26.554C32.3111 26.3417 31.1278 26.2572 29.7754 26.2572C20.3089 26.2572 14.3501 31.1357 14.3501 38.7715C14.3501 45.0925 18.4072 49.3773 24.4505 49.3773Z" fill="white"/>
</g>
<defs>
<clipPath id="clip0_2918_774">
<rect width="381.3" height="82" fill="white" transform="translate(14.3501)"/>
</clipPath>
</defs>
</svg>
